<?xml version="1.0" encoding="UTF-8" standalone="no"?>
<!-- Created with Inkscape (http://www.inkscape.org/) -->

<svg
   width="1000"
   height="268.16904"
   viewBox="0 0 264.58333 70.953057"
   version="1.1"
   id="svg1"
   sodipodi:docname="Diners Club 2015.svg"
   inkscape:version="1.3 (0e150ed6c4, 2023-07-21)"
   xmlns:inkscape="http://www.inkscape.org/namespaces/inkscape"
   xmlns:sodipodi="http://sodipodi.sourceforge.net/DTD/sodipodi-0.dtd"
   xmlns="http://www.w3.org/2000/svg"
   xmlns:svg="http://www.w3.org/2000/svg">
  <sodipodi:namedview
     id="namedview1"
     pagecolor="#ffffff"
     bordercolor="#000000"
     borderopacity="0.25"
     inkscape:showpageshadow="2"
     inkscape:pageopacity="0.0"
     inkscape:pagecheckerboard="0"
     inkscape:deskcolor="#d1d1d1"
     inkscape:document-units="mm"
     inkscape:zoom="0.52850975"
     inkscape:cx="164.6138"
     inkscape:cy="258.27338"
     inkscape:window-width="1920"
     inkscape:window-height="1017"
     inkscape:window-x="-8"
     inkscape:window-y="-8"
     inkscape:window-maximized="1"
     inkscape:current-layer="svg1" />
  <defs
     id="defs1">
    <clipPath
       clipPathUnits="userSpaceOnUse"
       id="clipPath24">
      <path
         d="M 0,0 H 595.276 V 841.89 H 0 Z"
         transform="translate(-95.0215,-792.93522)"
         id="path24" />
    </clipPath>
    <clipPath
       clipPathUnits="userSpaceOnUse"
       id="clipPath26">
      <path
         d="M 0,0 H 595.276 V 841.89 H 0 Z"
         transform="translate(-97.295702,-805.36052)"
         id="path26" />
    </clipPath>
    <clipPath
       clipPathUnits="userSpaceOnUse"
       id="clipPath28">
      <path
         d="M 0,0 H 595.276 V 841.89 H 0 Z"
         transform="translate(-101.5851,-799.26582)"
         id="path28" />
    </clipPath>
    <clipPath
       clipPathUnits="userSpaceOnUse"
       id="clipPath30">
      <path
         d="M 0,0 H 595.276 V 841.89 H 0 Z"
         transform="translate(-112.4637,-798.24342)"
         id="path30" />
    </clipPath>
    <clipPath
       clipPathUnits="userSpaceOnUse"
       id="clipPath32">
      <path
         d="M 0,0 H 595.276 V 841.89 H 0 Z"
         transform="translate(-119.1325,-792.93472)"
         id="path32" />
    </clipPath>
    <clipPath
       clipPathUnits="userSpaceOnUse"
       id="clipPath34">
      <path
         d="M 0,0 H 595.276 V 841.89 H 0 Z"
         transform="translate(-127.3104,-795.33402)"
         id="path34" />
    </clipPath>
    <clipPath
       clipPathUnits="userSpaceOnUse"
       id="clipPath36">
      <path
         d="M 0,0 H 595.276 V 841.89 H 0 Z"
         transform="translate(-152.5905,-803.36512)"
         id="path36" />
    </clipPath>
    <clipPath
       clipPathUnits="userSpaceOnUse"
       id="clipPath38">
      <path
         d="M 0,0 H 595.276 V 841.89 H 0 Z"
         transform="translate(-153.3547,-792.93472)"
         id="path38" />
    </clipPath>
    <clipPath
       clipPathUnits="userSpaceOnUse"
       id="clipPath40">
      <path
         d="M 0,0 H 595.276 V 841.89 H 0 Z"
         transform="translate(-166.99701,-793.55132)"
         id="path40" />
    </clipPath>
    <clipPath
       clipPathUnits="userSpaceOnUse"
       id="clipPath42">
      <path
         d="M 0,0 H 595.276 V 841.89 H 0 Z"
         transform="translate(-171.22221,-800.56152)"
         id="path42" />
    </clipPath>
    <clipPath
       clipPathUnits="userSpaceOnUse"
       id="clipPath44">
      <path
         d="M 0,0 H 595.276 V 841.89 H 0 Z"
         transform="translate(-83.099005,-779.63332)"
         id="path44" />
    </clipPath>
    <clipPath
       clipPathUnits="userSpaceOnUse"
       id="clipPath46">
      <path
         d="M 0,0 H 595.276 V 841.89 H 0 Z"
         transform="translate(-91.710205,-779.45802)"
         id="path46" />
    </clipPath>
    <clipPath
       clipPathUnits="userSpaceOnUse"
       id="clipPath50">
      <path
         d="M 0,0 H 595.276 V 841.89 H 0 Z"
         transform="translate(-94.573405,-787.12462)"
         id="path50" />
    </clipPath>
    <clipPath
       clipPathUnits="userSpaceOnUse"
       id="clipPath52">
      <path
         d="M 0,0 H 595.276 V 841.89 H 0 Z"
         transform="translate(-107.75271,-779.63332)"
         id="path52" />
    </clipPath>
    <clipPath
       clipPathUnits="userSpaceOnUse"
       id="clipPath54">
      <path
         d="M 0,0 H 595.276 V 841.89 H 0 Z"
         transform="translate(-116.5707,-779.63332)"
         id="path54" />
    </clipPath>
    <clipPath
       clipPathUnits="userSpaceOnUse"
       id="clipPath56">
      <path
         d="M 0,0 H 595.276 V 841.89 H 0 Z"
         transform="translate(-125.08641,-779.45802)"
         id="path56" />
    </clipPath>
    <clipPath
       clipPathUnits="userSpaceOnUse"
       id="clipPath60">
      <path
         d="M 0,0 H 595.276 V 841.89 H 0 Z"
         transform="translate(-134.23731,-779.63332)"
         id="path60" />
    </clipPath>
    <clipPath
       clipPathUnits="userSpaceOnUse"
       id="clipPath62">
      <path
         d="M 0,0 H 595.276 V 841.89 H 0 Z"
         transform="translate(-134.75151,-787.12462)"
         id="path62" />
    </clipPath>
    <clipPath
       clipPathUnits="userSpaceOnUse"
       id="clipPath64">
      <path
         d="M 0,0 H 595.276 V 841.89 H 0 Z"
         transform="translate(-145.3257,-779.63332)"
         id="path64" />
    </clipPath>
    <clipPath
       clipPathUnits="userSpaceOnUse"
       id="clipPath66">
      <path
         d="M 0,0 H 595.276 V 841.89 H 0 Z"
         transform="translate(-145.62021,-783.65972)"
         id="path66" />
    </clipPath>
    <clipPath
       clipPathUnits="userSpaceOnUse"
       id="clipPath68">
      <path
         d="M 0,0 H 595.276 V 841.89 H 0 Z"
         transform="translate(-162.82281,-779.45802)"
         id="path68" />
    </clipPath>
    <clipPath
       clipPathUnits="userSpaceOnUse"
       id="clipPath70">
      <path
         d="M 0,0 H 595.276 V 841.89 H 0 Z"
         transform="translate(-171.9738,-779.63332)"
         id="path70" />
    </clipPath>
    <clipPath
       clipPathUnits="userSpaceOnUse"
       id="clipPath72">
      <path
         d="M 0,0 H 595.276 V 841.89 H 0 Z"
         transform="translate(-178.48221,-779.63332)"
         id="path72" />
    </clipPath>
  </defs>
  <path
     style="fill:#151515;fill-opacity:1;fill-rule:nonzero;stroke:none"
     d="m 73.049482,-17.052317 v -0.398041 -0.04707 h 0.197108 c 0.496999,-0.002 0.999956,-0.373838 0.999956,-0.990837 v -4.867103 c -0.004,-0.921999 -0.223836,-1.413061 -0.985835,-1.415061 h -0.164159 -0.04707 v -0.398923 -0.05001 h 0.04707 c 0.525,0 1.055925,0.04619 1.573924,0.04619 0.494,0 0.992257,-0.04619 1.491257,-0.04619 h 0.05089 v 0.397159 0.05178 h -0.250946 c -0.866999,0.01 -1.020965,0.292033 -1.034965,1.300032 v 4.632044 l 5.865,-6.537816 0.478944,-0.01824 h 0.0559 l -0.01,0.05913 c -0.054,0.353 -0.06384,0.755938 -0.06384,1.157937 v 5.261908 c 0.01,1.360999 0.503893,1.403003 0.977892,1.418003 h 0.173868 0.04913 v 0.398041 0.04707 h -0.04913 c -0.481,0 -0.949829,-0.04501 -1.426829,-0.04501 -0.532999,0 -1.069052,0.04501 -1.613051,0.04501 H 79.3137 v -0.398041 -0.04707 h 0.300957 c 0.341,-0.008 0.955888,-0.117908 0.957888,-1.037908 v -4.251066 l -5.078039,5.717022 c -0.392999,0.017 -0.725032,-0.02795 -1.067032,-0.02795 -0.436999,0 -0.887922,0.04501 -1.330922,0.04501 z"
     transform="matrix(1.7565581,0,0,-1.7565581,93.459435,15.266594)"
     id="path25" />
  <path
     style="fill:#151515;fill-opacity:1;fill-rule:nonzero;stroke:none"
     d="m 35.311195,-17.052317 v -0.398041 -0.04707 h 0.203874 c 0.494,-0.002 0.997192,-0.373838 0.998192,-0.990837 v -4.865043 c -0.006,-0.924 -0.226073,-1.416945 -0.989072,-1.420945 h -0.158863 -0.05413 v -0.395099 -0.05001 h 0.05413 c 0.517999,0 1.053806,0.04795 1.569805,0.04795 0.495,0 0.99214,-0.04795 1.492139,-0.04795 h 0.05001 v 0.398041 0.04707 h -0.245062 c -0.871999,0.012 -1.022907,0.295857 -1.037907,1.303856 v 4.632044 l 5.865883,-6.537816 0.473942,-0.01824 h 0.05707 l -0.0059,0.05913 c -0.058,0.357 -0.06825,0.755938 -0.06825,1.157937 v 5.261908 c 0.012,1.360999 0.505246,1.406003 0.980246,1.418003 h 0.170925 0.05089 v 0.394216 0.0509 h -0.05089 c -0.475,0 -0.949945,-0.04501 -1.420945,-0.04501 -0.538999,0 -1.07123,0.04501 -1.619229,0.04501 h -0.04972 v -0.398041 -0.04707 h 0.304783 c 0.335999,-0.006 0.953945,-0.117908 0.954945,-1.037908 v -4.251066 l -5.082745,5.719964 c -0.387,0.014 -0.721149,-0.03089 -1.061149,-0.03089 -0.435999,0 -0.889863,0.04501 -1.328862,0.04501 z"
     transform="matrix(1.7565581,0,0,-1.7565581,93.459435,15.266594)"
     id="path23" />
  <path
     style="fill:#151515;fill-opacity:1;fill-rule:nonzero;stroke:none"
     d="m 1.9348837,-17.052317 v -0.393922 -0.05119 h 0.2021095 c 0.4959995,-0.002 1.0008985,-0.375838 1.0028985,-0.990837 v -4.867103 c -0.008,-0.921999 -0.2259549,-1.412885 -0.9899541,-1.418885 h -0.165924 -0.04913 v -0.395099 -0.05001 h 0.04913 c 0.5259995,0 1.0580421,0.04619 1.5730416,0.04619 0.4939995,0 0.9918452,-0.04619 1.4918447,-0.04619 h 0.052072 v 0.398041 0.04707 H 4.8520858 c -0.8689991,0.012 -1.0220248,0.297857 -1.0370248,1.303856 v 4.632044 l 5.8670595,-6.537816 0.4760015,-0.01824 h 0.06001 l -0.01118,0.05913 c -0.056,0.353 -0.06796,0.755938 -0.06796,1.157937 v 5.261908 c 0.014,1.360999 0.503129,1.403003 0.981128,1.418003 h 0.170925 0.05207 v 0.398041 0.04707 h -0.05207 c -0.475999,0 -0.950945,-0.04501 -1.4209441,-0.04501 -0.5399995,0 -1.0740534,0.04501 -1.6180529,0.04501 h -0.051189 v -0.393922 -0.05119 h 0.304194 c 0.3389996,-0.008 0.9510047,-0.117908 0.9570047,-1.037908 v -4.251066 l -5.0789207,5.717022 c -0.3899996,0.017 -0.7242094,-0.02795 -1.0682091,-0.02795 -0.4369995,0 -0.8879224,0.04501 -1.330922,0.04501 z"
     transform="matrix(1.7565581,0,0,-1.7565581,93.459435,15.266594)"
     id="path22" />
  <path
     style="fill:#151515;fill-opacity:1;fill-rule:nonzero;stroke:none"
     d="m 90.778045,-17.052022 v -0.398041 -0.04707 h 0.207993 c 0.424,-0.008 0.817971,-0.04698 0.821971,-0.608976 v -5.941784 c -0.004,-0.686 -0.400971,-0.716065 -0.821971,-0.726065 h -0.160922 -0.04707 v -0.395981 -0.04913 h 0.04707 c 1.019999,0 2.036944,0.04501 3.056943,0.04501 1.011999,0 2.029824,-0.04501 3.047823,-0.04501 h 0.03824 l 0.01177,0.03707 c 0.14,0.659999 0.299226,1.306082 0.429226,1.966081 l 0.01089,0.06296 h -0.395982 -0.04001 l -0.01206,-0.03913 c -0.068,-0.251999 -0.168852,-0.568852 -0.346852,-0.817852 -0.200999,-0.274999 -0.605093,-0.544915 -1.074092,-0.601915 -0.302,-0.032 -0.596045,-0.04619 -0.879044,-0.04619 -0.22,0 -0.436984,0.0081 -0.638984,0.02206 -0.363,0.053 -0.643869,0.166974 -0.649869,0.598974 v 5.962966 c 0.01,0.583999 0.290833,0.564909 0.737832,0.576909 h 0.292132 0.04501 v 0.398041 0.04707 h -0.04501 c -0.592999,0 -1.172148,-0.04501 -1.760147,-0.04501 -0.609999,0 -1.210812,0.04501 -1.827811,0.04501 z"
     transform="matrix(1.7565581,0,0,-1.7565581,93.459435,15.266594)"
     id="path20" />
  <path
     style="fill:#151515;fill-opacity:1;fill-rule:nonzero;stroke:none"
     d="m 60.198612,-17.052022 v -0.398041 -0.04707 h 0.208876 c 0.418999,-0.008 0.801142,-0.04674 0.803142,-0.610741 v -6.055048 c -0.002,-0.565 -0.384143,-0.603036 -0.803142,-0.611036 h -0.160923 -0.04795 v -0.04707 -0.348911 -0.04913 h 0.04795 c 0.451,0 1.133839,0.04707 1.699838,0.04707 0.576,0 1.269224,-0.04707 1.827223,-0.04707 h 0.04589 v 0.398041 0.04707 h -0.207993 c -0.422,0.008 -0.802967,0.04604 -0.806967,0.611036 v 6.055048 c 0.004,0.563999 0.384967,0.602741 0.806967,0.610741 h 0.162099 0.04589 v 0.398041 0.04707 h -0.04589 c -0.547999,0 -1.239221,-0.04501 -1.81722,-0.04501 -0.565,0 -1.258841,0.04501 -1.709841,0.04501 z"
     transform="matrix(1.7565581,0,0,-1.7565581,93.459435,15.266594)"
     id="path19" />
  <path
     style="fill:#151515;fill-opacity:1;fill-rule:nonzero;stroke:none"
     d="m 27.0756,-17.052022 v -0.398041 -0.04707 h 0.258006 c 0.357999,-0.012 0.759839,-0.0099 0.767839,-0.829914 v -5.872061 c -0.004,-0.389999 -0.35284,-0.57085 -0.767839,-0.57485 h -0.21123 -0.04678 v -0.395981 -0.04913 h 0.04678 c 0.582,0 1.122127,0.04501 1.675126,0.04501 0.655,0 1.327029,-0.04501 1.989028,-0.04501 h 0.05207 v 0.398041 0.04707 H 30.57942 c -0.535,0.013 -0.883813,0.006 -0.895813,0.876985 v 2.42296 h 0.681936 c 0.747999,-1.321998 1.507953,-2.563112 2.392953,-3.727111 0.401999,-0.018 0.774105,0.02707 1.124105,0.02707 0.382,0 0.748873,-0.04501 1.135873,-0.04501 h 0.04795 v 0.398041 0.04295 l -0.04207,0.0041 c -0.562,0.073 -0.761978,0.192993 -1.084978,0.673993 l -1.941958,2.906905 c 0.890999,0.363 1.582162,1.014047 1.582162,2.059046 -0.004,1.675998 -1.345998,2.081993 -2.800997,2.081993 -0.616999,0 -1.173115,-0.04501 -1.863114,-0.04501 -0.703999,0 -1.417097,0.04501 -1.793097,0.04501 z m 3.214041,-0.513953 c 1.005999,-0.006 1.633823,-0.632001 1.639823,-1.641 -0.009,-1.342998 -0.588023,-1.739027 -1.731022,-1.751027 h -0.514835 v 3.347898 c 0.147,0.016 0.293034,0.04413 0.606034,0.04413 z"
     transform="matrix(1.7565581,0,0,-1.7565581,93.459435,15.266594)"
     id="path18" />
  <path
     style="fill:#151515;fill-opacity:1;fill-rule:nonzero;stroke:none"
     d="m 19.964405,-17.052022 v -0.398041 -0.04707 h 0.212994 c 0.418,-0.01 0.801202,-0.04674 0.805202,-0.610741 v -6.055048 c -0.004,-0.565 -0.387202,-0.603036 -0.805202,-0.611036 h -0.159745 -0.05325 v -0.04707 -0.348911 -0.04913 h 0.05325 c 0.657999,0 2.03183,0.04707 3.072829,0.04707 1.038999,0 2.366898,-0.04707 3.109897,-0.04707 h 0.04119 l 0.0079,0.04119 c 0.105,0.611 0.240981,1.22399 0.390981,1.83399 l 0.01088,0.04795 -0.369799,0.09591 -0.05001,0.01 -0.01,-0.04707 c -0.348999,-1.297999 -0.90493,-1.366756 -2.297929,-1.374756 -0.754999,0.004 -1.358224,-1.76e-4 -1.361224,0.702823 v 2.645075 l 1.3371,-0.0021 c 0.768,-0.009 0.771979,-0.395865 0.851979,-1.100865 l 0.0041,-0.05325 0.403043,0.07914 0.04089,0.01 v 0.03913 c -0.023,0.441 -0.03707,0.880978 -0.03707,1.317978 0,0.450999 0.01407,0.899927 0.03707,1.350927 v 0.05207 h -0.4001 -0.04384 l -0.0041,-0.04619 c -0.08,-0.622 -0.196041,-0.965067 -0.864041,-0.969067 h -1.325038 v 2.925145 h 1.557156 c 1.192998,-0.01 1.291047,-0.554857 1.360046,-1.303856 l 0.0018,-0.06119 0.406278,0.105909 0.03677,0.01206 v 0.04207 c -0.022,0.329 -0.03501,0.766116 -0.03501,1.164116 0,0.221 0.0039,0.424974 0.01294,0.598973 v 0.0509 h -0.05178 c -0.785999,0 -1.986037,-0.04501 -2.956036,-0.04501 -0.967999,0 -2.172898,0.04501 -2.876897,0.04501 z"
     transform="matrix(1.7565581,0,0,-1.7565581,93.459435,15.266594)"
     id="path17" />
  <path
     style="fill:#151515;fill-opacity:1;fill-rule:nonzero;stroke:none"
     d="m -2.0293457,-17.052022 v -0.398041 -0.04707 h 0.2132888 c 0.4199995,-0.008 0.8019077,-0.04474 0.8049077,-0.610741 v -6.055048 c -0.003,-0.565 -0.3849082,-0.600036 -0.8049077,-0.611036 h -0.1612169 -0.052072 v -0.04913 -0.346851 -0.04913 h 0.052072 c 0.4539995,0 1.13395597,0.04501 1.69895541,0.04501 0.57499942,0 1.26816413,-0.04501 1.82516359,-0.04501 h 0.052072 v 0.395981 0.04913 H 1.386805 c -0.41899953,0.011 -0.80308445,0.04604 -0.80608445,0.611036 v 6.055048 c 0.003,0.565999 0.38708492,0.602741 0.80608445,0.610741 h 0.1600402 0.052072 v 0.394216 0.0509 h -0.052072 c -0.5459995,0 -1.23710232,-0.04501 -1.81310175,-0.04501 -0.56599943,0 -1.25701775,0.04501 -1.71101725,0.04501 z"
     transform="matrix(1.7565581,0,0,-1.7565581,93.459435,15.266594)"
     id="path16" />
  <path
     style="fill:#151515;fill-opacity:1;fill-rule:nonzero;stroke:none"
     d="m 68.383017,-16.876684 c -2.428997,-0.004 -4.309905,-1.884791 -4.314905,-4.315788 0.005,-2.511998 1.90204,-4.195231 4.374038,-4.202231 2.485997,0.007 4.41499,1.793244 4.41699,4.480241 -0.004,2.491998 -1.994125,4.033778 -4.476123,4.037778 z m -0.02295,-0.611036 c 1.877998,-0.001 2.781874,-2.008749 2.781874,-3.684747 -0.006,-1.684999 -0.384944,-3.620259 -2.585942,-3.613259 -1.827998,0.006 -2.76593,1.93824 -2.76893,3.999238 0.003,1.537998 0.592,3.297768 2.572998,3.298768 z"
     transform="matrix(1.7565581,0,0,-1.7565581,93.459435,15.266594)"
     id="path15" />
  <path
     style="fill:#151515;fill-opacity:1;fill-rule:nonzero;stroke:none"
     d="m 86.853531,-16.76195 c -0.047,0 -0.08179,-0.01418 -0.111792,-0.02618 -0.222,-0.14 -0.687029,-0.371772 -1.052029,-0.497772 -0.1,-0.458999 -0.308173,-1.035191 -0.457173,-1.46419 l -1.848993,-5.30486 c -0.168,-0.467 -0.530007,-0.715004 -0.962006,-0.719004 h -0.06384 -0.05001 v -0.395981 -0.05296 l 0.05001,0.0038 c 0.418,0.02 0.830784,0.04501 1.246783,0.04501 0.459,0 0.934057,-0.02501 1.395056,-0.04501 l 0.05207,-0.0038 v 0.401866 0.04707 h -0.177103 c -0.382,0 -0.81491,0.07286 -0.81491,0.356854 -0.004,0.185 0.136122,0.488105 0.252122,0.886105 l 0.355971,1.165881 h 2.550934 l 0.438051,-1.307976 c 0.132,-0.367999 0.235882,-0.68391 0.233882,-0.81491 -0.002,-0.223 -0.400874,-0.285954 -0.669874,-0.285954 h -0.126208 -0.04884 v -0.395981 -0.05296 l 0.0509,0.0038 c 0.588999,0.02 1.169082,0.04501 1.733081,0.04501 0.55,0 1.07187,-0.02501 1.59187,-0.04501 l 0.05119,-0.0038 v 0.401866 0.04707 h -0.11797 c -0.371,0.004 -0.57918,0.125933 -0.71518,0.433933 -0.151,0.341999 -0.290931,0.770118 -0.428931,1.174117 l -2.126121,6.046811 c -0.037,0.093 -0.07185,0.197013 -0.10385,0.288013 -0.038,0.063 -0.09909,0.07214 -0.127091,0.06914 z m -0.915817,-1.760147 1.007017,-3.094011 h -2.023155 z"
     transform="matrix(1.7565581,0,0,-1.7565581,93.459435,15.266594)"
     id="path14" />
  <path
     style="fill:#151515;fill-opacity:1;fill-rule:nonzero;stroke:none"
     d="m 49.118186,-16.761067 c -0.048,0 -0.0782,-0.01507 -0.111204,-0.02707 -0.224,-0.14 -0.688852,-0.371772 -1.050852,-0.497772 -0.099,-0.458999 -0.306939,-1.035191 -0.458938,-1.46419 l -1.85223,-5.30486 c -0.166999,-0.47 -0.523945,-0.715179 -0.954945,-0.715179 h -0.06796 -0.04884 v -0.399806 -0.05296 l 0.0509,0.0038 c 0.414,0.021 0.832019,0.04707 1.245018,0.04707 0.461,0 0.933822,-0.02607 1.396821,-0.04707 l 0.05207,-0.0038 v 0.399806 0.05296 h -0.175926 c -0.383,0 -0.817971,0.06926 -0.821971,0.351264 0,0.187 0.136064,0.49187 0.255064,0.88787 l 0.359796,1.165881 h 2.551228 l 0.438933,-1.307976 c 0.128,-0.365999 0.228822,-0.68391 0.226822,-0.81491 0,-0.223 -0.395931,-0.282129 -0.661931,-0.282129 h -0.125914 -0.05295 v -0.399806 -0.05296 l 0.05295,0.0038 c 0.591,0.021 1.166023,0.04707 1.731023,0.04707 0.553999,0 1.072811,-0.02607 1.58981,-0.04707 l 0.05501,-0.0038 v 0.399806 0.05296 h -0.118853 c -0.371,0 -0.584122,0.12199 -0.718122,0.43099 -0.15,0.341 -0.28793,0.769236 -0.42393,1.173235 l -2.129945,6.046811 c -0.034,0.093 -0.06903,0.195073 -0.105027,0.290073 -0.035,0.061 -0.09891,0.06996 -0.125914,0.06796 z m -0.914052,-1.758971 1.004957,-3.097835 h -2.02286 z"
     transform="matrix(1.7565581,0,0,-1.7565581,93.459435,15.266594)"
     id="path13" />
  <path
     style="fill:#151515;fill-opacity:1;fill-rule:nonzero;stroke:none"
     d="m 59.494318,-16.685754 v -0.05296 c -0.02,-0.301999 -0.255145,-0.307019 -0.575145,-0.313019 h -5.963848 -0.05796 c -0.293999,0.006 -0.507971,0.0069 -0.588971,0.298898 l -0.01,0.03824 h -0.31302 -0.05296 v -0.05207 c 0,-0.330999 -0.02114,-0.65201 -0.06913,-0.977009 -0.034,-0.333 -0.09186,-0.65607 -0.138858,-0.979069 l -0.0082,-0.05884 h 0.407161 0.04089 l 0.0079,0.04001 c 0.188,0.853999 0.168024,0.997784 1.027023,1.013784 h 1.842226 v -6.125948 c -0.016,-0.896999 -0.270169,-0.903937 -0.908169,-0.919937 h -0.220937 -0.04795 v -0.395981 -0.04913 h 0.04795 c 0.456999,0 1.265079,0.04501 1.956078,0.04501 0.623,0 1.430943,-0.04501 1.881943,-0.04501 h 0.05089 v 0.398041 0.04707 h -0.270068 c -0.550999,0.012 -0.896874,0.07294 -0.907874,0.944943 v 6.100942 h 1.844874 c 0.731999,0 0.778144,-0.629797 0.808144,-1.063796 v -0.06913 l 0.410103,0.150037 0.03501,0.01383 v 0.03501 c 0,0.312 -2.29e-4,0.625058 0.02177,0.934058 0.034,0.309 0.07721,0.619999 0.126208,0.931998 l 0.01,0.04913 -0.3292,0.0509 z"
     transform="matrix(1.7565581,0,0,-1.7565581,93.459435,15.266594)"
     id="path12" />
  <path
     style="fill:#151515;fill-opacity:1;fill-rule:nonzero;stroke:none"
     d="m 19.325127,-16.685754 -0.0038,-0.05296 c -0.02,-0.301999 -0.255086,-0.307019 -0.578086,-0.313019 h -5.960024 -0.0609 c -0.296,0.006 -0.507206,0.0069 -0.587206,0.298898 l -0.0079,0.03824 h -0.316844 -0.05001 v -0.05207 c 0,-0.330999 -0.02114,-0.652185 -0.06914,-0.973185 -0.035,-0.337 -0.09603,-0.659894 -0.140035,-0.982893 l -0.0071,-0.05884 h 0.404219 0.04295 l 0.0059,0.04001 c 0.191,0.853999 0.171081,0.995784 1.02408,1.013784 h 1.848111 v -6.125948 c -0.015,-0.896999 -0.272052,-0.903937 -0.909052,-0.919937 h -0.220055 -0.04913 v -0.395981 -0.04913 h 0.04913 c 0.455,0 1.26302,0.04501 1.954019,0.04501 0.622,0 1.430062,-0.04501 1.886062,-0.04501 h 0.04795 v 0.398041 0.04707 h -0.268009 c -0.552999,0.012 -0.89811,0.07294 -0.91111,0.944943 v 6.100942 h 1.846051 c 0.729999,0 0.777144,-0.629797 0.808144,-1.063796 l 0.0029,-0.06913 0.408926,0.150037 0.03295,0.01383 v 0.03501 c 0,0.312 6e-6,0.625058 0.02501,0.934058 0.032,0.309 0.07815,0.619999 0.124149,0.931998 l 0.0059,0.04913 -0.325964,0.0509 z"
     transform="matrix(1.7565581,0,0,-1.7565581,93.459435,15.266594)"
     id="path11" />
  <path
     style="fill:#151515;fill-opacity:1;fill-rule:nonzero;stroke:none"
     d="m 79.091879,-3.0829312 c -0.279,0 -1.973217,-0.1239783 -2.739216,-0.1479783 v -0.4030422 c 1.186999,-0.1049999 1.27326,-0.6370049 1.27326,-1.1900043 v -5.44107 c 0,-1.782999 1.186999,-2.523869 2.334998,-2.523869 1.507998,0 2.488944,0.740919 3.760943,1.781918 v -1.718961 l 0.105909,-0.06296 c 0.405999,0.127 2.145945,0.57193 3.061944,0.65693 v 0.446877 c -0.276,0 -0.596802,-0.01883 -0.850802,-0.01883 -0.363999,0 -0.593972,0.01904 -0.593972,0.403043 v 7.8357882 c 0,0.2339997 -4.3e-5,0.3821546 -0.170043,0.3821546 -0.211,0 -1.403068,-0.1679567 -3.314066,-0.2959565 v -0.3809779 c 0.762999,-0.2149998 1.783094,-0.448278 1.783094,-0.8722776 v -5.7179048 c -0.891999,-0.737999 -1.849174,-1.292088 -2.569174,-1.292088 -1.846998,0 -1.846933,1.8291476 -1.846933,2.464147 v 5.4810803 c 0,0.4659996 5.8e-5,0.6139775 -0.235942,0.6139775 z"
     transform="matrix(1.7565581,0,0,-1.7565581,93.459435,15.266594)"
     id="path10" />
  <path
     style="fill:#151515;fill-opacity:1;fill-rule:nonzero;stroke:none"
     d="m 48.82017,-2.7643219 c -2.335997,0 -3.292884,-1.5250357 -3.292884,-2.7180345 0,-3.4179966 4.627042,-2.6139332 4.627042,-5.1189306 0,-0.743999 -0.465196,-1.508908 -1.717195,-1.508908 -1.550998,0 -2.399907,1.190828 -2.678907,2.5918265 l -0.380978,-0.1059089 0.233,-2.4441426 c 0.743999,-0.423999 1.740886,-0.720769 2.593886,-0.720769 2.526997,0 3.652974,1.487961 3.652974,2.88896 0,3.3349967 -4.928,2.5689763 -4.928,5.0559738 0,0.9119991 0.806004,1.4029989 1.656003,1.4029989 1.359999,0 2.10417,-0.7660584 2.316169,-2.1040571 h 0.488947 l -0.150038,2.167014 c -0.827999,0.4239996 -1.741019,0.6139775 -2.420019,0.6139775 z"
     transform="matrix(1.7565581,0,0,-1.7565581,93.459435,15.266594)"
     id="path9" />
  <path
     style="fill:#151515;fill-opacity:1;fill-rule:nonzero;stroke:none"
     d="m 16.443228,-2.7640277 c -0.108,0 -0.233038,-0.022144 -0.383037,-0.1041437 -0.086,-0.067 -1.273924,-0.4670748 -2.272923,-0.7660745 v -0.3409679 c 0.786999,-0.4209995 1.102923,-0.549785 1.102923,-1.4847841 v -5.7540901 c 0,-0.702999 -0.422903,-0.703117 -1.017902,-0.703117 h -0.403042 v -0.553963 c 0.784999,0.019 1.55017,0.04119 2.316169,0.04119 0.762999,0 1.505912,-0.04119 2.227911,-0.04119 v 0.553963 h -0.358913 c -0.593,0 -1.063208,1.18e-4 -1.063208,0.703117 v 8.1549863 c 0,0.1689999 -0.04298,0.295074 -0.147978,0.295074 z"
     transform="matrix(1.7565581,0,0,-1.7565581,93.459435,15.266594)"
     id="path8" />
  <path
     style="fill:#151515;fill-opacity:1;fill-rule:nonzero;stroke:none"
     d="m 40.663419,-2.7637335 c -0.192,0 -1.044064,-0.5517751 -2.595062,-1.2117744 V -4.290587 c 0.319999,-0.1709998 1.103806,-0.2988879 1.103806,-0.9578872 v -5.9662018 c 0,-0.703 -0.421844,-0.702824 -1.015843,-0.702824 h -0.576027 v -0.553962 c 0.765999,0.021 1.65787,0.04178 2.528869,0.04178 0.913999,0 1.8051,-0.02078 2.973099,-0.04178 v 0.553962 h -1.188828 c -0.595999,0 -1.019079,-1.76e-4 -1.019079,0.702824 v 4.9880153 c 0,1.2759987 1.188801,1.7651485 1.549801,1.7651485 0.741999,0 0.742117,-0.5121872 1.402116,-0.5121872 0.596999,0 0.997897,0.5119785 0.997897,1.0849779 0,0.7669993 -0.678833,1.124988 -1.208832,1.124988 -1.295999,0 -2.189035,-1.3587256 -2.718035,-2.1867248 h -0.04501 v 1.9107733 c 0,0.2149997 -0.06387,0.2759515 -0.188871,0.2759515 z"
     transform="matrix(1.7565581,0,0,-1.7565581,93.459435,15.266594)"
     id="path7" />
  <path
     style="fill:#151515;fill-opacity:1;fill-rule:nonzero;stroke:none"
     d="M 21.605993,-2.7634393 C 20.584994,-3.2074389 19.714877,-3.4845187 18.800878,-3.7825184 V -4.18762 c 0.998999,-0.4029996 1.232073,-0.614881 1.232073,-1.3988802 v -5.6278818 c 0,-0.702999 -0.42302,-0.703118 -1.017019,-0.703118 h -0.387156 v -0.553962 c 0.765999,0.02 1.532105,0.04207 2.294105,0.04207 0.767999,0 1.512154,-0.04207 2.256154,-0.04207 V -11.9175 H 22.79688 c -0.596,0 -1.064973,1.19e-4 -1.064973,0.703118 v 6.2827519 c 0.702999,0.4689996 1.785031,1.0211385 2.46503,1.0211385 1.211999,0 1.952842,-0.5930424 1.952842,-1.8060412 v -5.4978492 c 0,-0.702999 -0.42302,-0.703118 -1.017019,-0.703118 h -0.382743 v -0.553962 c 0.764999,0.02 1.52887,0.04207 2.29587,0.04207 0.761999,0 1.504976,-0.04207 2.249976,-0.04207 v 0.553962 h -0.383038 c -0.592999,0 -1.062031,1.19e-4 -1.062031,0.703118 v 5.479021 c 0,1.6559983 -0.63579,2.9719217 -2.441788,2.9719217 -1.422999,0 -2.4651,-0.72093 -3.677099,-1.5939291 v 1.384759 c 0,0.1669998 -0.06291,0.2091701 -0.125914,0.2091701 z"
     transform="matrix(1.7565581,0,0,-1.7565581,93.459435,15.266594)"
     id="path6" />
  <path
     style="fill:#151515;fill-opacity:1;fill-rule:nonzero;stroke:none"
     d="m 33.500446,-2.7628509 c -1.484998,0 -4.28784,-1.2320632 -4.28784,-5.396059 0,-1.3599987 0.678786,-4.6299851 4.057783,-4.6299851 1.740998,0 2.951221,1.104015 3.92922,2.400014 l -0.298016,0.296839 c -0.783999,-0.785999 -1.699956,-1.423886 -2.868954,-1.423886 -1.697999,0 -2.996077,1.6569236 -3.121077,3.6759216 -0.044,0.7219992 -0.044,1.0401912 0,1.231191 h 5.967967 l 0.193872,0.1279733 c 0.017,0.1279999 0.01706,0.2539199 0.01706,0.3839198 -0.017,2.2509978 -1.868019,3.3340714 -3.590018,3.3340714 z m -0.08384,-0.6781112 c 1.188999,0 1.846934,-0.8709625 1.846934,-1.9569614 0,-0.2539997 -0.06203,-0.5289561 -0.591031,-0.5289561 h -3.697986 c 0.255,1.5309984 1.147084,2.4859175 2.442083,2.4859175 z"
     transform="matrix(1.7565581,0,0,-1.7565581,93.459435,15.266594)"
     id="path5" />
  <path
     style="fill:#151515;fill-opacity:1;fill-rule:nonzero;stroke:none"
     d="M -1.9540327,2.3560798 V 1.8059419 C -0.99903368,1.7839419 -1.3309498e-5,1.9098988 -1.3309498e-5,-9.9280478e-5 V -10.30386 C -0.06301325,-11.748858 -0.682034,-11.789911 -1.9540327,-11.916911 v -0.553963 c 0.95499902,0.02 1.89089131,0.04178 2.84689035,0.04178 0.99699905,0 1.99818525,-0.04178 3.08018415,-0.04178 7.5209922,0 8.7510182,5.2887387 8.7510182,7.3927366 0,3.7619962 -2.9949597,7.4342172 -8.4959542,7.4342172 -1.5719984,0 -2.7840401,-0.039127 -3.67503924,-0.039127 -0.82899917,0 -1.68010016,1.275e-4 -2.50709926,0.039127 z m 5.691133,-0.6801706 c 4.1009959,0 6.6490207,-2.8677777 6.6490207,-6.8387737 0,-3.1649969 -1.5050628,-6.6272505 -6.0950582,-6.6272505 -1.039999,0 -2.209966,0.190048 -2.209966,1.8260465 V 1.5920647 c 0.3839996,0.023 0.7860044,0.083844 1.6560035,0.083844 z"
     transform="matrix(1.7565581,0,0,-1.7565581,93.459435,15.266594)"
     id="path4" />
  <path
     style="fill:#151515;fill-opacity:1;fill-rule:nonzero;stroke:none"
     d="m 15.743641,2.5923155 c -0.532,0 -1.043203,-0.4900215 -1.043203,-1.022021 0,-0.5519994 0.488203,-1.06203101 1.043203,-1.06203101 0.570999,0 1.040849,0.48803161 1.040849,1.06203101 0,0.5749994 -0.48985,1.022021 -1.040849,1.022021 z"
     transform="matrix(1.7565581,0,0,-1.7565581,93.459435,15.266594)"
     id="path3" />
  <path
     style="fill:#151515;fill-opacity:1;fill-rule:nonzero;stroke:none"
     d="m 65.814432,2.6767485 c -4.164996,0 -8.050254,-3.12393869 -8.050254,-7.4789343 0,-4.7789953 3.141157,-7.9870032 8.111152,-7.9870032 1.401998,0 3.805943,0.571871 4.697942,1.125871 l 0.486005,3.1022484 -0.486005,0.1259139 c -0.424999,-2.2319973 -2.168955,-3.6750393 -4.271953,-3.6750393 -3.266997,0 -6.331882,3.0799123 -6.331882,7.373908 0,5.09699494 3.548741,6.7319823 5.994738,6.7319823 2.375998,0 4.140199,-0.9989347 4.543199,-3.4829322 h 0.531015 L 70.826277,1.5508779 C 69.190279,2.1238773 67.53643,2.6767485 65.814432,2.6767485 Z"
     transform="matrix(1.7565581,0,0,-1.7565581,93.459435,15.266594)"
     id="path2" />
  <path
     style="fill:#151515;fill-opacity:1;fill-rule:nonzero;stroke:none"
     d="m 89.503019,3.7602555 c -0.066,0 -0.237941,-0.1090591 -0.468941,-0.235059 C 88.587079,3.2681968 87.696999,2.8881435 86.845,2.6111438 V 2.2710585 C 87.652999,2.0390587 87.969988,1.9952884 87.969988,0.61328983 V -8.5198828 c 0,-1.2939987 -0.107074,-2.5298322 -0.295074,-3.7818312 l 0.445111,-0.232117 0.636925,0.486005 c 0.553999,-0.232 1.380036,-0.741069 2.951034,-0.741069 3.040997,0 5.080098,2.783222 5.080098,5.5652196 0,2.3129977 -1.486994,4.4599419 -3.950991,4.4599419 -1.167999,0 -2.316972,-0.8081484 -3.166971,-1.5271477 v 7.751944 c 0,0.1709998 -0.0401,0.2991927 -0.167101,0.2991927 z m 2.187902,-7.6710413 c 1.655998,0 3.399088,-1.9101152 3.399088,-4.2031129 0,-1.8919983 -0.955048,-4.1219163 -3.229045,-4.1219163 -1.426999,0 -2.190844,1.358133 -2.190844,2.166132 v 5.1589405 c 0.574,0.4909995 1.230802,0.9999567 2.020801,0.9999567 z"
     transform="matrix(1.7565581,0,0,-1.7565581,93.459435,15.266594)"
     id="path1" />
  <path
     style="fill:#151515;fill-opacity:1;fill-rule:nonzero;stroke:none"
     d="m 74.757557,3.7602555 c -0.063,0 -0.235176,-0.1078823 -0.467176,-0.2338822 -0.447,-0.2579998 -1.339785,-0.6379356 -2.188784,-0.9149353 V 2.2704701 C 72.909596,2.0384703 73.228644,1.9954059 73.228644,0.61240726 V -11.214676 c 0,-0.703 -0.425256,-0.702824 -1.020256,-0.702824 h -0.405984 v -0.553962 c 0.789999,0.021 1.554053,0.04178 2.317052,0.04178 0.766999,0 1.512148,-0.04178 2.231148,-0.04178 v 0.553962 h -0.360091 c -0.593999,0 -1.06409,-1.76e-4 -1.06409,0.702824 V 3.461357 c 0,0.1709998 -0.03987,0.2988985 -0.168866,0.2988985 z"
     transform="matrix(1.7565581,0,0,-1.7565581,93.459435,15.266594)"
     id="path21" />
  <path
     id="path77"
     d="m 0,0 c 0,10.769 8.73,19.5 19.499,19.5 10.769,0 19.499,-8.731 19.499,-19.5 0,-10.769 -8.73,-19.5 -19.499,-19.5 C 8.73,-19.5 0,-10.769 0,0"
     style="fill:#ffffff;fill-opacity:1;fill-rule:nonzero;stroke:none"
     transform="matrix(1.7565581,0,0,-1.7565581,1.6144501,35.412561)"
     clip-path="none" />
  <path
     id="path79"
     d="m 0,0 c -11.175,-0.053 -20.372,9 -20.372,20.021 0,12.043 9.197,20.374 20.372,20.372 H 5.236 C 16.279,40.395 26.358,32.068 26.358,20.021 26.358,9.004 16.279,0 5.236,0 Z M 0.044,38.722 C -10.167,38.718 -18.44,30.443 -18.442,20.231 -18.44,10.021 -10.167,1.747 0.044,1.745 10.257,1.747 18.532,10.021 18.535,20.231 18.532,30.443 10.257,38.718 0.044,38.722 M -4.152,9.298 v 21.87 c -4.395,-1.692 -7.511,-5.945 -7.522,-10.937 0.011,-4.99 3.127,-9.243 7.522,-10.933 m 15.918,10.933 c -0.008,4.994 -3.131,9.253 -7.527,10.94 V 9.294 c 4.396,1.688 7.519,5.943 7.527,10.937"
     style="fill:#196ab0;fill-opacity:1;fill-rule:nonzero;stroke:none"
     transform="matrix(1.7565581,0,0,-1.7565581,35.784602,70.952651)"
     clip-path="none" />
</svg>
