<?xml version="1.0" encoding="UTF-8"?>
<svg id="Capa_1" data-name="Capa 1" xmlns="http://www.w3.org/2000/svg" viewBox="0 0 184.25 42.52">
  <defs>
    <style>
      .cls-1 {
        fill: #161428;
      }

      .cls-1, .cls-2, .cls-3 {
        stroke-width: 0px;
      }

      .cls-2 {
        fill: #fff;
      }

      .cls-3 {
        fill: #e7516d;
      }
    </style>
  </defs>
  <polygon class="cls-1" points="15.79 8.76 14.51 8.76 10.93 8.76 10.93 33.76 15.79 33.76 15.79 13.03 27.76 13.03 27.76 8.76 15.79 8.76"/>
  <polygon class="cls-1" points="19.17 23.52 27.16 23.52 27.16 19.25 20.81 19.25 19.17 23.52"/>
  <polygon class="cls-1" points="37.77 8.76 27.62 33.76 32.76 33.76 39.73 15.62 46.63 33.76 51.81 33.76 41.77 8.76 37.77 8.76"/>
  <polygon class="cls-1" points="54.77 8.76 54.77 33.76 58.35 33.76 59.63 33.76 71.14 33.76 71.14 29.45 59.63 29.45 59.63 8.76 54.77 8.76"/>
  <path class="cls-1" d="m88.25,28.97c-1,.44-2.2.66-3.61.66-1.17,0-2.23-.2-3.2-.6-.96-.4-1.8-.97-2.52-1.71-.72-.73-1.26-1.62-1.64-2.65-.38-1.03-.57-2.17-.57-3.43s.19-2.36.57-3.4c.38-1.03.93-1.92,1.64-2.67.71-.75,1.55-1.32,2.52-1.71.97-.39,2.02-.59,3.16-.59,1.33,0,2.5.21,3.5.64,1,.43,1.85,1.02,2.54,1.78l3.32-3.31c-1.17-1.11-2.51-2-4.02-2.65-1.51-.65-3.29-.98-5.34-.98-1.83,0-3.54.33-5.11,1-1.57.66-2.94,1.58-4.11,2.74-1.17,1.16-2.07,2.52-2.72,4.09-.64,1.56-.97,3.25-.97,5.05s.32,3.48.97,5.05c.64,1.57,1.55,2.93,2.73,4.11,1.18,1.17,2.55,2.09,4.13,2.75,1.57.66,3.29,1,5.14,1,2,0,3.78-.33,5.34-.98,1.56-.65,2.94-1.55,4.13-2.68l-3.32-3.31c-.71.76-1.57,1.36-2.57,1.8"/>
  <polygon class="cls-1" points="172.1 23.09 172.1 18.93 165.32 18.93 163.72 23.09 172.1 23.09"/>
  <polygon class="cls-1" points="160.7 8.76 159.42 8.76 155.85 8.76 155.85 33.76 159.42 33.76 160.7 33.76 173.32 33.76 173.32 29.49 160.7 29.49 160.7 13.03 173.14 13.03 173.14 8.76 160.7 8.76"/>
  <path class="cls-1" d="m145.93,25.56c-.68,1.24-1.63,2.2-2.86,2.88-1.23.68-2.64,1.01-4.23,1.01h-4.86V13.07h4.86c1.6,0,3,.34,4.22,1.03,1.21.69,2.17,1.64,2.86,2.84.69,1.21,1.04,2.63,1.04,4.27s-.34,3.11-1.02,4.36m2.3-13.26c-1.17-1.13-2.55-2-4.14-2.61-1.6-.62-3.32-.92-5.18-.92h-9.79v24.99h9.86c1.83,0,3.54-.31,5.13-.92,1.58-.62,2.96-1.49,4.13-2.61,1.17-1.13,2.07-2.45,2.72-3.98.64-1.53.97-3.19.97-5s-.32-3.46-.97-4.98c-.64-1.52-1.55-2.84-2.72-3.96"/>
  <g>
    <path class="cls-3" d="m121.9,14.62c-1.59-2.45-4.24-4.19-7.2-4.41-.11-.01-.24-.01-.35-.02-3.03-.09-5.77,1.2-7.59,3.3-.29.33-.55.68-.79,1.05-1.46.61-2.48,2.05-2.48,3.7,0,.65.15,1.25.42,1.8.37-.48.95-.78,1.6-.78h3.2l.6,1.06c.16.28.25.61.25.95,0,.56-.23,1.07-.59,1.43-.37.36-.88.58-1.43.58h-.01c-3.68.01-6.71,2.8-7.05,6.38-1.91-2.26-3.06-5.19-3.06-8.39,0-7.23,5.88-13.08,13.15-13.08,4.83,0,9.05,2.59,11.33,6.44"/>
    <path class="cls-2" d="m122.72,25.3v.99c-.87,2.09-2.27,3.9-4.04,5.27v-2.2c0-1.69-1.38-3.07-3.08-3.07h-5.02c-1.68,0-3.04-1.35-3.04-3.02h.01c.55,0,1.06-.22,1.43-.58.37-.36.59-.87.59-1.43,0-.34-.09-.67-.25-.95l-.61-1.06-2.74-4.72c.24-.36.5-.72.79-1.05l4.59,7.91c.34.58.82,1.06,1.38,1.38.57.33,1.21.5,1.89.5h2.88l-.58-1c-.17-.3-.26-.64-.26-1.01,0-1.11.9-2.01,2.02-2.01.74,0,1.41.41,1.75,1.01l1.75,3c.35.63.55,1.33.55,2.05"/>
    <path class="cls-1" d="m118.67,29.36v2.2c-2.23,1.75-5.04,2.79-8.1,2.79-4.06,0-7.66-1.83-10.09-4.69h0c.34-3.59,3.37-6.38,7.05-6.39,0,1.67,1.36,3.02,3.04,3.02h5.01c1.7,0,3.08,1.38,3.08,3.07"/>
    <path class="cls-1" d="m108.71,19.24h-3.2c-.65,0-1.23.31-1.6.78-.27-.55-.42-1.15-.42-1.8,0-1.66,1.02-3.09,2.48-3.7l2.74,4.72Z"/>
    <path class="cls-1" d="m115.62,13.75c0,1.51-1.23,2.74-2.75,2.74-1.01,0-1.9-.55-2.38-1.36l1.03-.59c.27.47.78.78,1.35.78.88,0,1.58-.7,1.58-1.57,0-.27-.08-.54-.22-.77l1.39-.8v1.57Zm8.11,7.5c0-2.26-.57-4.39-1.59-6.24-.07-.14-.15-.26-.24-.4-1.59-2.45-4.24-4.19-7.2-4.41-.11-.01-.24-.01-.35-.02-3.03-.09-5.77,1.2-7.6,3.3l4.59,7.91c.34.58.82,1.06,1.38,1.37.57.33,1.21.5,1.88.5h2.88l-.58-1c-.17-.3-.26-.64-.26-1.01,0-1.11.9-2.01,2.02-2.01.74,0,1.41.41,1.75,1.01l1.75,3c.35.63.55,1.33.55,2.05v.99c.66-1.55,1.02-3.25,1.02-5.04"/>
    <path class="cls-2" d="m115.62,12.18v1.57c0,1.51-1.23,2.74-2.75,2.74-1,0-1.9-.55-2.37-1.37l1.03-.59c.27.47.78.78,1.35.78.88,0,1.58-.7,1.58-1.57,0-.27-.08-.55-.22-.77l1.39-.8Z"/>
  </g>
</svg>